<svg width="800" height="400" viewBox="0 0 800 400" xmlns="http://www.w3.org/2000/svg">
  <!-- Background gradient -->
  <defs>
    <linearGradient id="backgroundGradient" x1="0%" y1="0%" x2="100%" y2="100%">
      <stop offset="0%" stop-color="#ff6b6b" />
      <stop offset="100%" stop-color="#e84393" />
    </linearGradient>
    <linearGradient id="lightningGradient" x1="0%" y1="0%" x2="100%" y2="100%">
      <stop offset="0%" stop-color="#ffeaa7" />
      <stop offset="100%" stop-color="#fdcb6e" />
    </linearGradient>
  </defs>
  
  <!-- Background -->
  <rect width="800" height="400" fill="url(#backgroundGradient)" rx="20" ry="20" />
  
  <!-- Shopping Cart Icon -->
  <g transform="translate(100, 200) scale(2.5)">
    <path d="M8 1a2 2 0 0 0-2 2v2H3a1 1 0 0 0-1 1v12a1 1 0 0 0 1 1h10a1 1 0 0 0 1-1V6a1 1 0 0 0-1-1h-3V3a2 2 0 0 0-2-2zM7 3a1 1 0 0 1 2 0v2H7V3zm3 10a2 2 0 1 1-4 0 2 2 0 0 1 4 0z" fill="white" />
    <circle cx="8" cy="13" r="1.5" fill="#e84393" />
  </g>
  
  <!-- Lightning Bolt -->
  <g transform="translate(500, 190) scale(5)">
    <path d="M11 0L0 14h7l-2 6 13-14h-7l2-6z" fill="url(#lightningGradient)" stroke="#f39c12" stroke-width="0.5" />
  </g>
  
  <!-- Text: Flash Sale -->
  <text x="400" y="320" font-family="Arial, sans-serif" font-size="36" font-weight="bold" text-anchor="middle" fill="white">FLASH SALE PLATFORM</text>
  <text x="400" y="350" font-family="Arial, sans-serif" font-size="18" font-weight="normal" text-anchor="middle" fill="white">High-Concurrency E-Commerce System</text>
  
  <!-- Small icons for Spring Boot, Redis, MySQL -->
  <g transform="translate(330, 380) scale(0.5)">
    <circle cx="0" cy="0" r="20" fill="white" />
    <path d="M0-15C-8.3-15-15-8.3-15,0C-15,8.3-8.3,15,0,15C8.3,15,15,8.3,15,0C15-8.3,8.3-15,0-15M0,0" fill="#6db33f" />
  </g>
  
  <g transform="translate(380, 380) scale(0.5)">
    <circle cx="0" cy="0" r="20" fill="white" />
    <path d="M0-15L15,0L0,15L-15,0L0-15" fill="#dc382d" />
  </g>
  
  <g transform="translate(430, 380) scale(0.5)">
    <circle cx="0" cy="0" r="20" fill="white" />
    <path d="M-5-10H5V10H-5V-10M-10-5H-5V5H-10V-5M5-5H10V5H5V-5" fill="#4479a1" />
  </g>
</svg>