<?xml version="1.0" encoding="UTF-8"?>
<svg width="800" height="400" viewBox="0 0 800 400" xmlns="http://www.w3.org/2000/svg">
  <!-- Background -->
  <rect width="800" height="400" fill="#FF4500"/>
  
  <!-- Reddit Logo -->
  <g transform="translate(200, 100) scale(0.7)">
    <!-- Reddit Mascot (Simplified) -->
    <circle cx="170" cy="100" r="90" fill="#FFFFFF"/>
    <circle cx="140" cy="80" r="12" fill="#FF4500"/>
    <circle cx="200" cy="80" r="12" fill="#FF4500"/>
    <path d="M120,120 Q170,150 220,120" fill="none" stroke="#FF4500" stroke-width="8" stroke-linecap="round"/>
    <circle cx="170" cy="45" r="10" fill="#FFFFFF"/>
    <circle cx="170" cy="45" r="5" fill="#FF4500"/>
    <!-- Antenna -->
    <path d="M170,45 Q210,10 250,30" fill="none" stroke="#FFFFFF" stroke-width="8" stroke-linecap="round"/>
    <circle cx="250" cy="30" r="10" fill="#FFFFFF"/>
  </g>
  
  <!-- Data Pipeline Icons -->
  <g transform="translate(400, 140)">
    <!-- Pipeline Flow -->
    <path d="M0,0 L200,0" stroke="#FFFFFF" stroke-width="15" stroke-linecap="round" stroke-dasharray="1, 20"/>
    
    <!-- Data Nodes -->
    <circle cx="0" cy="0" r="30" fill="#FFFFFF" opacity="0.9"/>
    <circle cx="100" cy="0" r="30" fill="#FFFFFF" opacity="0.9"/>
    <circle cx="200" cy="0" r="30" fill="#FFFFFF" opacity="0.9"/>
    
    <!-- AWS Cloud -->
    <g transform="translate(100, 60)">
      <path d="M-60,20 Q-60,-20 -20,-20 L20,-20 Q60,-20 60,20 L60,40 Q60,80 20,80 L-20,80 Q-60,80 -60,40 Z" fill="#FFFFFF" opacity="0.85"/>
      <text x="0" y="40" font-family="Arial, sans-serif" font-size="20" font-weight="bold" text-anchor="middle" fill="#FF4500">AWS</text>
    </g>
  </g>
  
  <!-- Title Text -->
  <text x="400" y="320" font-family="Arial, sans-serif" font-size="24" font-weight="bold" text-anchor="middle" fill="#FFFFFF">
    Reddit Data Streaming Pipeline
  </text>
</svg>